PathFileType	4	(X/Y/Z)	/Users/niels/Desktop/University/Third Semester/Perception and Action/Exam/Gymnastics Motion Tracking/Code for Gym Tracking/Analyzed Data/Webcam_Backflip/id6_5_baseline_Sports2D/id6_5_baseline_Sports2D_px_person00.trc
DataRate	CameraRate	NumFrames	NumMarkers	Units	OrigDataRate	OrigDataStartFrame	OrigNumFrames
29.8125	29.8125	12	22	m	29.8125	80	160
Frame#	Time	Hip			RHip			RKnee			RAnkle			RBigToe			RSmallToe			RHeel			LHip			LKnee			LAnkle			LBigToe			LSmallToe			LHeel			Neck			Head			Nose			RShoulder			RElbow			RWrist			LShoulder			LElbow			LWrist		
		X1	Y1	Z1	X2	Y2	Z2	X3	Y3	Z3	X4	Y4	Z4	X5	Y5	Z5	X6	Y6	Z6	X7	Y7	Z7	X8	Y8	Z8	X9	Y9	Z9	X10	Y10	Z10	X11	Y11	Z11	X12	Y12	Z12	X13	Y13	Z13	X14	Y14	Z14	X15	Y15	Z15	X16	Y16	Z16	X17	Y17	Z17	X18	Y18	Z18	X19	Y19	Z19	X20	Y20	Z20	X21	Y21	Z21	X22	Y22	Z22
80	2.683438155136268	0.8054214093468225	-0.6674441314044713	0.0	0.8012461561570455	-0.6697123074957092	0.0	0.8255499265106508	-0.7671914549207767	0.0	0.7933730066604674	-0.8546462618006369	0.0	0.819696735598999	-0.8701361636337012	0.0	0.8137901597799054	-0.8729053332319331	0.0	0.7835523758630568	-0.8643905288065731	0.0	0.8102008712176902	-0.670119845670165	0.0	0.8291123305045818	-0.7656780583368905	0.0	0.7949529819163186	-0.8501161480008858	0.0	0.8267033428223379	-0.8664617070205481	0.0	0.8199409893707653	-0.8623310604857065	0.0	0.781938625650203	-0.8574357361647418	0.0	0.8758611736969392	-0.5482320859707123	0.0	0.9312872361714237	-0.5077951825795696	0.0	0.9177616168278944	-0.5435143996153159	0.0	0.859813647039496	-0.5571336072013742	0.0	0.8684718400992878	-0.6111538034548814	0.0	0.9231396667210995	-0.5952684345147702	0.0	0.8632476542094768	-0.5545462220844005	0.0	0.8727787368104966	-0.5941686551777637	0.0	0.9230315341900935	-0.57832697671135	0.0
81	2.716981132075471	0.8054542771370112	-0.652706692454646	0.0	0.8013424248809085	-0.6550806131488208	0.0	0.827918086625799	-0.7515292657694328	0.0	0.7927401189645988	-0.838636162550721	0.0	0.8197790459622053	-0.8544652812503098	0.0	0.812764866445676	-0.8570544046455562	0.0	0.7818407209822144	-0.8476329783521075	0.0	0.8109579934650851	-0.655488294771862	0.0	0.8317655799960535	-0.7501984255336864	0.0	0.7954992730511729	-0.8343535449542693	0.0	0.8267705633015868	-0.8515678855404715	0.0	0.8210488900574888	-0.8468145648359614	0.0	0.7820858584675803	-0.8410891645939258	0.0	0.8739488559889963	-0.5343392190465511	0.0	0.9293135520786423	-0.49454657065037777	0.0	0.9153440352654213	-0.5296465839367823	0.0	0.8585610791226534	-0.5423699162621165	0.0	0.858350883810368	-0.5965625982510081	0.0	0.9123591664770978	-0.5848521524469326	0.0	0.8612230247874338	-0.5407266514092245	0.0	0.8612952377132421	-0.5816148697807787	0.0	0.9135271693005365	-0.5710774888456712	0.0
82	2.7505241090146746	0.8055761981087202	-0.6278691881179282	0.0	0.8015438560752035	-0.630121333853643	0.0	0.831277390075953	-0.7255534442243249	0.0	0.7929180281977914	-0.8132045951669834	0.0	0.821302990163671	-0.8310958902821568	0.0	0.8130626564587923	-0.8333284485955823	0.0	0.7810222108659653	-0.8224505535284481	0.0	0.8117283512514903	-0.6306031163342717	0.0	0.8351472613439622	-0.7245731555976139	0.0	0.7968726999925176	-0.809146054185061	0.0	0.8275520393384639	-0.8288107500046791	0.0	0.8227249737070383	-0.8235799371683824	0.0	0.7833331458481368	-0.8165611953099555	0.0	0.8746893291674798	-0.5128266680686205	0.0	0.9314875555714952	-0.47546246330562314	0.0	0.9157344984780953	-0.5093000611811174	0.0	0.8599062323052626	-0.5192729162364995	0.0	0.852061019161835	-0.5735013812130902	0.0	0.905456487087637	-0.5683556066184063	0.0	0.8619537458493856	-0.5185768436167933	0.0	0.8533825396838121	-0.5618095066629614	0.0	0.9068993170087107	-0.5589359015840436	0.0
83	2.784067085953878	0.8060088928105188	-0.5968015785013503	0.0	0.8020748333581016	-0.5986717002079026	0.0	0.8357096460939154	-0.6930704152041176	0.0	0.7942288221491123	-0.7819377137062218	0.0	0.824319811162517	-0.8032611468593812	0.0	0.8150158545952896	-0.8051086139890181	0.0	0.7816094812741105	-0.7921426602733792	0.0	0.8126154393359092	-0.5993193947516201	0.0	0.8395026161434117	-0.6925137725695478	0.0	0.7995236163777903	-0.7780337698984091	0.0	0.8295046077612285	-0.8011993779390506	0.0	0.8255108904950622	-0.7957446434746999	0.0	0.7859305505536294	-0.7869449214097898	0.0	0.8770421638888888	-0.4860135700829184	0.0	0.9363317169919093	-0.4521075956463754	0.0	0.918016067816049	-0.48453945161595485	0.0	0.8627832338445899	-0.4904662870244884	0.0	0.8493360844813466	-0.5441092825015481	0.0	0.9020482719627378	-0.5461040305892785	0.0	0.86449323407982	-0.4907640094867612	0.0	0.8492979831324766	-0.5364363820510857	0.0	0.9018683937487434	-0.5421032519194342	0.0
84	2.817610062893081	0.8069163471045236	-0.5632471880276488	0.0	0.8031713276555443	-0.5644777085153431	0.0	0.8408587579071003	-0.6580856125371938	0.0	0.7967011771549763	-0.7485658029796252	0.0	0.8281090136261966	-0.7741752574432703	0.0	0.8181670342542829	-0.7757103352047587	0.0	0.7836739076833673	-0.7598838369528688	0.0	0.8136703603909826	-0.5653960148587991	0.0	0.8444129838709101	-0.6579288221238152	0.0	0.8034003805348282	-0.7448581777625479	0.0	0.8323399509629607	-0.7719934937789379	0.0	0.829275275019377	-0.766602011011782	0.0	0.7896283473470994	-0.7554038088875901	0.0	0.8800701733662132	-0.4565366014716829	0.0	0.9422922833724803	-0.42645337544254647	0.0	0.9211633242501269	-0.45767587388414555	0.0	0.8663572225820168	-0.458894383967121	0.0	0.849518792142945	-0.5112960179988129	0.0	0.9016030432677752	-0.5194940710247167	0.0	0.8679097079206373	-0.46015675234026004	0.0	0.8484409863964718	-0.5078065771384367	0.0	0.8971380034566592	-0.5215987320037516	0.0
85	2.8511530398322846	0.8083199564225882	-0.5301619407679877	0.0	0.8049044585316287	-0.5305572784183292	0.0	0.8461338233897826	-0.6239815296036731	0.0	0.800203955652939	-0.7160507372421012	0.0	0.831791101254226	-0.746279094732836	0.0	0.8217577025557316	-0.7475648853902668	0.0	0.786991977642957	-0.7281113904395126	0.0	0.8148500987955157	-0.5318365307110712	0.0	0.8491444203249197	-0.624111568519486	0.0	0.8081069155597325	-0.7127299472346483	0.0	0.8354585884172803	-0.7438548748763558	0.0	0.833467250969811	-0.7387342072406446	0.0	0.793877654848089	-0.7244691924404957	0.0	0.8832176075640427	-0.42676196955677964	0.0	0.9481655477540849	-0.40035616925006406	0.0	0.9244534991206658	-0.4307042154799619	0.0	0.8700975757231598	-0.4271692286239738	0.0	0.8518651272804464	-0.4780043071473684	0.0	0.9038084044327002	-0.49054685711086193	0.0	0.8714810678254282	-0.4292385082673859	0.0	0.8495898769858322	-0.4783500752913857	0.0	0.8921109055351228	-0.49914239337818855	0.0
86	2.884696016771488	0.8101058526064326	-0.49951170331803735	0.0	0.807110229335674	-0.49899652218377616	0.0	0.8510247413341997	-0.5929975927798697	0.0	0.8044862827313183	-0.6861563715782297	0.0	0.8348504039148831	-0.7209284940227991	0.0	0.8252371395819635	-0.7219388386518132	0.0	0.7911521159877605	-0.6983662397029731	0.0	0.8160739903721977	-0.5006589518263803	0.0	0.8532192105017272	-0.5932149612057797	0.0	0.8131793212688482	-0.6834854831028918	0.0	0.8384453411761185	-0.7183407456423918	0.0	0.8375741792901427	-0.7135733462355982	0.0	0.7980267725945878	-0.6956812840617181	0.0	0.886331984614087	-0.3984616498542425	0.0	0.9533117021922144	-0.37511950095954266	0.0	0.9277115522119171	-0.40493202836475745	0.0	0.8737245348829359	-0.39726484210960206	0.0	0.855695784491283	-0.44671955632582655	0.0	0.9083988727115945	-0.46147060819943814	0.0	0.874801045121401	-0.3999055325981398	0.0	0.8514989901399075	-0.450118589173126	0.0	0.8869908821949943	-0.4766569228668786	0.0
87	2.918238993710691	0.8121191693603135	-0.4724054238048133	0.0	0.8095230009268476	-0.4710483415916083	0.0	0.8553200564772988	-0.5661693092650651	0.0	0.8091399395030484	-0.6595719582108253	0.0	0.8370277999657237	-0.6986015325614274	0.0	0.8282190808921739	-0.6992036106366479	0.0	0.7955984797649764	-0.6713915554649971	0.0	0.8173511316835909	-0.4730103060908887	0.0	0.8566369793870845	-0.5662393228448558	0.0	0.8183194629836997	-0.6578697877712133	0.0	0.8411433091368818	-0.6960918067387376	0.0	0.8413209198278362	-0.6916827181450868	0.0	0.8016288288857648	-0.669765609515211	0.0	0.8894180849531316	-0.37279516106530575	0.0	0.9575573504169039	-0.3515030108430185	0.0	0.9310212415391402	-0.3810850545401182	0.0	0.8771146974400887	-0.3704750359506498	0.0	0.8605182916483828	-0.41926292374950547	0.0	0.9148876246469809	-0.43442610322024616	0.0	0.8777402159008857	-0.3734743086436994	0.0	0.8533884591950375	-0.42456127345424227	0.0	0.8824723905154861	-0.4557225695448038	0.0
88	2.9517819706498947	0.8142591987953671	-0.4493361948028426	0.0	0.8119527246108914	-0.4473171853792222	0.0	0.8590969439314663	-0.5436145865231184	0.0	0.813609735102912	-0.6362730732993623	0.0	0.8380452432333866	-0.679138086480613	0.0	0.8302286238302621	-0.6791293366599966	0.0	0.7997112891328638	-0.6472415184289781	0.0	0.8188157941967245	-0.4494214395526453	0.0	0.8597089060544428	-0.5433878898723472	0.0	0.8235794792720152	-0.6360451094405212	0.0	0.8436350150779995	-0.677197734096698	0.0	0.8447212001740614	-0.6731325374181342	0.0	0.8049068796289283	-0.6470683841367535	0.0	0.8924335990757908	-0.35043352780951664	0.0	0.9609562289060344	-0.3299970259494684	0.0	0.9343459734190945	-0.3596189647362552	0.0	0.8802354955834698	-0.34750338244741824	0.0	0.8660820244800624	-0.39674294947724964	0.0	0.9226624623282551	-0.41131962953740725	0.0	0.8803067960729511	-0.3507271124443365	0.0	0.8550017299458126	-0.4025915705582355	0.0	0.8793504946516081	-0.43748556765853847	0.0
89	2.985324947589098	0.8164834981064979	-0.43042637989130317	0.0	0.8143469818229108	-0.42795184300102235	0.0	0.8626189582685309	-0.5249573303623911	0.0	0.8173612396933442	-0.6158835426857846	0.0	0.8376597941664334	-0.6619706802612904	0.0	0.8307939480352813	-0.6611286120273606	0.0	0.8029846529630899	-0.6255191442963373	0.0	0.8205911594441385	-0.4300399183877512	0.0	0.8626949012898127	-0.5245094797073421	0.0	0.8292753583389209	-0.6180814884371149	0.0	0.8463137797784424	-0.6615048325584949	0.0	0.8480953185174055	-0.6577502569727077	0.0	0.8088552648553051	-0.6279770533252489	0.0	0.8952806444370824	-0.33169708298330847	0.0	0.9636522084553051	-0.31099062361979507	0.0	0.9375214249481868	-0.3409015585621675	0.0	0.8831144611813795	-0.32864873018684293	0.0	0.8722975417386314	-0.3795676660039926	0.0	0.9311939787843718	-0.39356209334908293	0.0	0.8825355190401686	-0.33196794756187187	0.0	0.8563868459318073	-0.3846961285574149	0.0	0.8781182314691831	-0.42277729461442376	0.0
90	3.018867924528301	0.8187345550925116	-0.4156191486362823	0.0	0.8167471615962205	-0.4128381210117685	0.0	0.8662850014329715	-0.5096813336432036	0.0	0.8201182062445697	-0.5979079672749597	0.0	0.8358568215505838	-0.6464614451022265	0.0	0.8297363140793875	-0.6445495531294942	0.0	0.8052325996804707	-0.6056960998518898	0.0	0.8226060527206055	-0.41478612305550494	0.0	0.8655152597063891	-0.5094157980651043	0.0	0.8356498914200338	-0.6041968239853723	0.0	0.849798724097135	-0.6489118083437095	0.0	0.8519437255188559	-0.6453641747908989	0.0	0.8147168035682288	-0.6130680847562276	0.0	0.8978485679525019	-0.3167052635735342	0.0	0.9658483343468739	-0.2948253423989661	0.0	0.940415465971823	-0.3252689045809223	0.0	0.8858049598413595	-0.314019128288197	0.0	0.8790935288390743	-0.3675683665128584	0.0	0.9399764703399167	-0.3819683556678897	0.0	0.8844258572529309	-0.3171456776561004	0.0	0.8577287479711312	-0.3709734500432808	0.0	0.87876436259307	-0.41208525571123417	0.0
91	3.0524109014675047	0.8209262643625891	-0.4047657587847527	0.0	0.8192336373178016	-0.40175552713844	0.0	0.8705641355870789	-0.4973297705589792	0.0	0.8219483534017992	-0.5818978429166768	0.0	0.8329063225431953	-0.6322063147879937	0.0	0.8273043821165905	-0.6289304812807527	0.0	0.8066378568745974	-0.5874008803442103	0.0	0.8245532845649012	-0.40345535307902614	0.0	0.8677801498118272	-0.4980353351709655	0.0	0.8426831573877399	-0.5946592718824034	0.0	0.8546585106494907	-0.6395072459598944	0.0	0.8567002514439606	-0.6359440971592261	0.0	0.8231751077712721	-0.6029211342221411	0.0	0.900049619719628	-0.30550718487830014	0.0	0.9677603130269881	-0.2818608881636238	0.0	0.9429948782820932	-0.3130447684300496	0.0	0.8883604765392863	-0.30363873909106814	0.0	0.8863073935699961	-0.36027084210147053	0.0	0.9483062802864957	-0.3767920431682263	0.0	0.8859369224281817	-0.30604632677191274	0.0	0.8594242763035181	-0.3612458002223887	0.0	0.8809453900762266	-0.40555751654634203	0.0
